<svg xmlns="http://www.w3.org/2000/svg" viewBox="0 0 400 400"><defs><style>.cls-1{fill:#fff;}</style></defs><title>qrcode</title><g id="Camada_1" data-name="Camada 1"><rect class="cls-1" width="8.89" height="62.22"/><rect class="cls-1" y="71.11" width="8.89" height="8.89"/><rect class="cls-1" y="97.78" width="8.89" height="8.89"/><rect class="cls-1" y="115.56" width="8.89" height="8.89"/><rect class="cls-1" y="151.11" width="8.89" height="35.56"/><rect class="cls-1" y="213.33" width="8.89" height="8.89"/><rect class="cls-1" y="240" width="8.89" height="8.89"/><rect class="cls-1" y="257.78" width="8.89" height="17.78"/><rect class="cls-1" y="293.33" width="8.89" height="8.89"/><rect class="cls-1" y="320" width="8.89" height="8.89"/><rect class="cls-1" y="337.78" width="8.89" height="62.22"/><rect class="cls-1" x="8.89" width="8.89" height="8.89"/><rect class="cls-1" x="8.89" y="53.33" width="8.89" height="8.89"/><rect class="cls-1" x="8.89" y="80" width="8.89" height="8.89"/><rect class="cls-1" x="8.89" y="106.67" width="8.89" height="17.78"/><rect class="cls-1" x="8.89" y="142.22" width="8.89" height="35.56"/><rect class="cls-1" x="8.89" y="195.56" width="8.89" height="35.56"/><rect class="cls-1" x="8.89" y="266.67" width="8.89" height="17.78"/><rect class="cls-1" x="8.89" y="311.11" width="8.89" height="8.89"/><rect class="cls-1" x="8.89" y="337.78" width="8.89" height="8.89"/><rect class="cls-1" x="8.89" y="391.11" width="8.89" height="8.89"/><rect class="cls-1" x="17.78" width="8.89" height="8.89"/><rect class="cls-1" x="17.78" y="17.78" width="8.89" height="26.67"/><rect class="cls-1" x="17.78" y="53.33" width="8.89" height="8.89"/><rect class="cls-1" x="17.78" y="71.11" width="8.89" height="8.89"/><rect class="cls-1" x="17.78" y="88.89" width="8.89" height="8.89"/><rect class="cls-1" x="17.78" y="106.67" width="8.89" height="17.78"/><rect class="cls-1" x="17.78" y="133.33" width="8.89" height="8.89"/><rect class="cls-1" x="17.78" y="151.11" width="8.89" height="17.78"/><rect class="cls-1" x="17.78" y="177.78" width="8.89" height="8.89"/><rect class="cls-1" x="17.78" y="240" width="8.89" height="8.89"/><rect class="cls-1" x="17.78" y="275.56" width="8.89" height="26.67"/><rect class="cls-1" x="17.78" y="311.11" width="8.89" height="8.89"/><rect class="cls-1" x="17.78" y="337.78" width="8.89" height="8.89"/><rect class="cls-1" x="17.78" y="355.56" width="8.89" height="26.67"/><rect class="cls-1" x="17.78" y="391.11" width="8.89" height="8.89"/><rect class="cls-1" x="26.67" width="8.89" height="8.89"/><rect class="cls-1" x="26.67" y="17.78" width="8.89" height="26.67"/><rect class="cls-1" x="26.67" y="53.33" width="8.89" height="8.89"/><rect class="cls-1" x="26.67" y="71.11" width="8.89" height="17.78"/><rect class="cls-1" x="26.67" y="106.67" width="8.89" height="26.67"/><rect class="cls-1" x="26.67" y="160" width="8.89" height="8.89"/><rect class="cls-1" x="26.67" y="195.56" width="8.89" height="17.78"/><rect class="cls-1" x="26.67" y="231.11" width="8.89" height="8.89"/><rect class="cls-1" x="26.67" y="248.89" width="8.89" height="8.89"/><rect class="cls-1" x="26.67" y="284.44" width="8.89" height="17.78"/><rect class="cls-1" x="26.67" y="311.11" width="8.89" height="17.78"/><rect class="cls-1" x="26.67" y="337.78" width="8.89" height="8.89"/><rect class="cls-1" x="26.67" y="355.56" width="8.89" height="26.67"/><rect class="cls-1" x="26.67" y="391.11" width="8.89" height="8.89"/><rect class="cls-1" x="35.56" width="8.89" height="8.89"/><rect class="cls-1" x="35.56" y="17.78" width="8.89" height="26.67"/><rect class="cls-1" x="35.56" y="53.33" width="8.89" height="8.89"/><rect class="cls-1" x="35.56" y="71.11" width="8.89" height="8.89"/><rect class="cls-1" x="35.56" y="88.89" width="8.89" height="17.78"/><rect class="cls-1" x="35.56" y="115.56" width="8.89" height="17.78"/><rect class="cls-1" x="35.56" y="142.22" width="8.89" height="8.89"/><rect class="cls-1" x="35.56" y="168.89" width="8.89" height="53.33"/><rect class="cls-1" x="35.56" y="257.78" width="8.89" height="8.89"/><rect class="cls-1" x="35.56" y="275.56" width="8.89" height="8.89"/><rect class="cls-1" x="35.56" y="302.22" width="8.89" height="26.67"/><rect class="cls-1" x="35.56" y="337.78" width="8.89" height="8.89"/><rect class="cls-1" x="35.56" y="355.56" width="8.89" height="26.67"/><rect class="cls-1" x="35.56" y="391.11" width="8.89" height="8.89"/><rect class="cls-1" x="44.44" width="8.89" height="8.89"/><rect class="cls-1" x="44.44" y="53.33" width="8.89" height="8.89"/><rect class="cls-1" x="44.44" y="71.11" width="8.89" height="8.89"/><rect class="cls-1" x="44.44" y="106.67" width="8.89" height="35.56"/><rect class="cls-1" x="44.44" y="151.11" width="8.89" height="35.56"/><rect class="cls-1" x="44.44" y="213.33" width="8.89" height="8.89"/><rect class="cls-1" x="44.44" y="275.56" width="8.89" height="26.67"/><rect class="cls-1" x="44.44" y="337.78" width="8.89" height="8.89"/><rect class="cls-1" x="44.44" y="391.11" width="8.89" height="8.89"/><rect class="cls-1" x="53.33" width="8.89" height="62.22"/><rect class="cls-1" x="53.33" y="71.11" width="8.89" height="8.89"/><rect class="cls-1" x="53.33" y="88.89" width="8.89" height="8.89"/><rect class="cls-1" x="53.33" y="106.67" width="8.89" height="8.89"/><rect class="cls-1" x="53.33" y="124.44" width="8.89" height="8.89"/><rect class="cls-1" x="53.33" y="142.22" width="8.89" height="8.89"/><rect class="cls-1" x="53.33" y="160" width="8.89" height="8.89"/><rect class="cls-1" x="53.33" y="177.78" width="8.89" height="8.89"/><rect class="cls-1" x="53.33" y="195.56" width="8.89" height="8.89"/><rect class="cls-1" x="53.33" y="213.33" width="8.89" height="8.89"/><rect class="cls-1" x="53.33" y="231.11" width="8.89" height="8.89"/><rect class="cls-1" x="53.33" y="248.89" width="8.89" height="8.89"/><rect class="cls-1" x="53.33" y="266.67" width="8.89" height="8.89"/><rect class="cls-1" x="53.33" y="284.44" width="8.89" height="8.89"/><rect class="cls-1" x="53.33" y="302.22" width="8.89" height="8.89"/><rect class="cls-1" x="53.33" y="320" width="8.89" height="8.89"/><rect class="cls-1" x="53.33" y="337.78" width="8.89" height="62.22"/><rect class="cls-1" x="62.22" y="124.44" width="8.89" height="8.89"/><rect class="cls-1" x="62.22" y="142.22" width="8.89" height="17.78"/><rect class="cls-1" x="62.22" y="168.89" width="8.89" height="17.78"/><rect class="cls-1" x="62.22" y="213.33" width="8.89" height="26.67"/><rect class="cls-1" x="62.22" y="257.78" width="8.89" height="26.67"/><rect class="cls-1" x="62.22" y="311.11" width="8.89" height="8.89"/><rect class="cls-1" x="71.11" y="17.78" width="8.89" height="53.33"/><rect class="cls-1" x="71.11" y="80" width="8.89" height="35.56"/><rect class="cls-1" x="71.11" y="124.44" width="8.89" height="8.89"/><rect class="cls-1" x="71.11" y="142.22" width="8.89" height="17.78"/><rect class="cls-1" x="71.11" y="177.78" width="8.89" height="44.44"/><rect class="cls-1" x="71.11" y="275.56" width="8.89" height="17.78"/><rect class="cls-1" x="71.11" y="302.22" width="8.89" height="8.89"/><rect class="cls-1" x="71.11" y="320" width="8.89" height="17.78"/><rect class="cls-1" x="71.11" y="346.67" width="8.89" height="35.56"/><rect class="cls-1" x="71.11" y="391.11" width="8.89" height="8.89"/><rect class="cls-1" x="80" y="26.67" width="8.89" height="8.89"/><rect class="cls-1" x="80" y="44.45" width="8.89" height="8.89"/><rect class="cls-1" x="80" y="62.22" width="8.89" height="53.33"/><rect class="cls-1" x="80" y="124.44" width="8.89" height="26.67"/><rect class="cls-1" x="80" y="160" width="8.89" height="35.56"/><rect class="cls-1" x="80" y="222.22" width="8.89" height="8.89"/><rect class="cls-1" x="80" y="240" width="8.89" height="8.89"/><rect class="cls-1" x="80" y="257.78" width="8.89" height="26.67"/><rect class="cls-1" x="80" y="293.33" width="8.89" height="8.89"/><rect class="cls-1" x="80" y="320" width="8.89" height="8.89"/><rect class="cls-1" x="80" y="337.78" width="8.89" height="8.89"/><rect class="cls-1" x="80" y="355.56" width="8.89" height="8.89"/><rect class="cls-1" x="80" y="373.33" width="8.89" height="17.78"/><rect class="cls-1" x="88.89" y="26.67" width="8.89" height="8.89"/><rect class="cls-1" x="88.89" y="53.33" width="8.89" height="8.89"/><rect class="cls-1" x="88.89" y="71.11" width="8.89" height="8.89"/><rect class="cls-1" x="88.89" y="88.89" width="8.89" height="71.11"/><rect class="cls-1" x="88.89" y="168.89" width="8.89" height="8.89"/><rect class="cls-1" x="88.89" y="195.56" width="8.89" height="53.33"/><rect class="cls-1" x="88.89" y="257.78" width="8.89" height="8.89"/><rect class="cls-1" x="88.89" y="284.44" width="8.89" height="8.89"/><rect class="cls-1" x="88.89" y="302.22" width="8.89" height="17.78"/><rect class="cls-1" x="88.89" y="328.89" width="8.89" height="8.89"/><rect class="cls-1" x="88.89" y="346.67" width="8.89" height="8.89"/><rect class="cls-1" x="88.89" y="373.33" width="8.89" height="17.78"/><rect class="cls-1" x="97.78" width="8.89" height="17.78"/><rect class="cls-1" x="97.78" y="26.67" width="8.89" height="17.78"/><rect class="cls-1" x="97.78" y="71.11" width="8.89" height="8.89"/><rect class="cls-1" x="97.78" y="88.89" width="8.89" height="26.67"/><rect class="cls-1" x="97.78" y="124.44" width="8.89" height="8.89"/><rect class="cls-1" x="97.78" y="222.22" width="8.89" height="17.78"/><rect class="cls-1" x="97.78" y="248.89" width="8.89" height="8.89"/><rect class="cls-1" x="97.78" y="275.56" width="8.89" height="8.89"/><rect class="cls-1" x="97.78" y="302.22" width="8.89" height="8.89"/><rect class="cls-1" x="97.78" y="320" width="8.89" height="26.67"/><rect class="cls-1" x="97.78" y="355.56" width="8.89" height="17.78"/><rect class="cls-1" x="97.78" y="382.22" width="8.89" height="17.78"/><rect class="cls-1" x="106.67" width="8.89" height="8.89"/><rect class="cls-1" x="106.67" y="53.33" width="8.89" height="8.89"/><rect class="cls-1" x="106.67" y="80" width="8.89" height="26.67"/><rect class="cls-1" x="106.67" y="133.33" width="8.89" height="8.89"/><rect class="cls-1" x="106.67" y="151.11" width="8.89" height="8.89"/><rect class="cls-1" x="106.67" y="177.78" width="8.89" height="8.89"/><rect class="cls-1" x="106.67" y="195.56" width="8.89" height="26.67"/><rect class="cls-1" x="106.67" y="240" width="8.89" height="26.67"/><rect class="cls-1" x="106.67" y="275.56" width="8.89" height="17.78"/><rect class="cls-1" x="106.67" y="302.22" width="8.89" height="26.67"/><rect class="cls-1" x="106.67" y="337.78" width="8.89" height="8.89"/><rect class="cls-1" x="106.67" y="355.56" width="8.89" height="8.89"/><rect class="cls-1" x="106.67" y="373.33" width="8.89" height="17.78"/><rect class="cls-1" x="115.56" y="8.89" width="8.89" height="8.89"/><rect class="cls-1" x="115.56" y="35.56" width="8.89" height="8.89"/><rect class="cls-1" x="115.56" y="62.22" width="8.89" height="17.78"/><rect class="cls-1" x="115.56" y="106.67" width="8.89" height="8.89"/><rect class="cls-1" x="115.56" y="124.44" width="8.89" height="17.78"/><rect class="cls-1" x="115.56" y="151.11" width="8.89" height="17.78"/><rect class="cls-1" x="115.56" y="177.78" width="8.89" height="8.89"/><rect class="cls-1" x="115.56" y="231.11" width="8.89" height="35.56"/><rect class="cls-1" x="115.56" y="293.33" width="8.89" height="17.78"/><rect class="cls-1" x="115.56" y="346.67" width="8.89" height="17.78"/><rect class="cls-1" x="115.56" y="391.11" width="8.89" height="8.89"/><rect class="cls-1" x="124.44" width="8.89" height="8.89"/><rect class="cls-1" x="124.44" y="17.78" width="8.89" height="8.89"/><rect class="cls-1" x="124.44" y="35.56" width="8.89" height="8.89"/><rect class="cls-1" x="124.44" y="53.33" width="8.89" height="8.89"/><rect class="cls-1" x="124.44" y="71.11" width="8.89" height="35.56"/><rect class="cls-1" x="124.44" y="115.56" width="8.89" height="17.78"/><rect class="cls-1" x="124.44" y="177.78" width="8.89" height="8.89"/><rect class="cls-1" x="124.44" y="195.56" width="8.89" height="44.44"/><rect class="cls-1" x="124.44" y="248.89" width="8.89" height="8.89"/><rect class="cls-1" x="124.44" y="293.33" width="8.89" height="8.89"/><rect class="cls-1" x="124.44" y="328.89" width="8.89" height="17.78"/><rect class="cls-1" x="124.44" y="373.33" width="8.89" height="8.89"/><rect class="cls-1" x="124.44" y="391.11" width="8.89" height="8.89"/><rect class="cls-1" x="133.33" width="8.89" height="26.67"/><rect class="cls-1" x="133.33" y="35.56" width="8.89" height="8.89"/><rect class="cls-1" x="133.33" y="62.22" width="8.89" height="8.89"/><rect class="cls-1" x="133.33" y="80" width="8.89" height="17.78"/><rect class="cls-1" x="133.33" y="106.67" width="8.89" height="8.89"/><rect class="cls-1" x="133.33" y="124.44" width="8.89" height="17.78"/><rect class="cls-1" x="133.33" y="160" width="8.89" height="26.67"/><rect class="cls-1" x="133.33" y="213.33" width="8.89" height="26.67"/><rect class="cls-1" x="133.33" y="248.89" width="8.89" height="26.67"/><rect class="cls-1" x="133.33" y="284.44" width="8.89" height="8.89"/><rect class="cls-1" x="133.33" y="302.22" width="8.89" height="8.89"/><rect class="cls-1" x="133.33" y="355.56" width="8.89" height="8.89"/><rect class="cls-1" x="133.33" y="373.33" width="8.89" height="26.67"/><rect class="cls-1" x="142.22" y="17.78" width="8.89" height="8.89"/><rect class="cls-1" x="142.22" y="53.33" width="8.89" height="17.78"/><rect class="cls-1" x="142.22" y="97.78" width="8.89" height="8.89"/><rect class="cls-1" x="142.22" y="124.44" width="8.89" height="17.78"/><rect class="cls-1" x="142.22" y="160" width="8.89" height="8.89"/><rect class="cls-1" x="142.22" y="177.78" width="8.89" height="26.67"/><rect class="cls-1" x="142.22" y="222.22" width="8.89" height="35.56"/><rect class="cls-1" x="142.22" y="266.67" width="8.89" height="26.67"/><rect class="cls-1" x="142.22" y="320" width="8.89" height="17.78"/><rect class="cls-1" x="142.22" y="355.56" width="8.89" height="26.67"/><rect class="cls-1" x="151.11" y="8.89" width="8.89" height="44.45"/><rect class="cls-1" x="151.11" y="71.11" width="8.89" height="8.89"/><rect class="cls-1" x="151.11" y="106.67" width="8.89" height="17.78"/><rect class="cls-1" x="151.11" y="142.22" width="8.89" height="8.89"/><rect class="cls-1" x="151.11" y="168.89" width="8.89" height="26.67"/><rect class="cls-1" x="151.11" y="204.44" width="8.89" height="8.89"/><rect class="cls-1" x="151.11" y="222.22" width="8.89" height="8.89"/><rect class="cls-1" x="151.11" y="248.89" width="8.89" height="8.89"/><rect class="cls-1" x="151.11" y="311.11" width="8.89" height="17.78"/><rect class="cls-1" x="151.11" y="337.78" width="8.89" height="17.78"/><rect class="cls-1" x="151.11" y="364.44" width="8.89" height="8.89"/><rect class="cls-1" x="151.11" y="382.22" width="8.89" height="8.89"/><rect class="cls-1" x="160" y="8.89" width="8.89" height="26.67"/><rect class="cls-1" x="160" y="53.33" width="8.89" height="8.89"/><rect class="cls-1" x="160" y="80" width="8.89" height="17.78"/><rect class="cls-1" x="160" y="106.67" width="8.89" height="8.89"/><rect class="cls-1" x="160" y="124.44" width="8.89" height="44.44"/><rect class="cls-1" x="160" y="177.78" width="8.89" height="8.89"/><rect class="cls-1" x="160" y="195.56" width="8.89" height="35.56"/><rect class="cls-1" x="160" y="240" width="8.89" height="8.89"/><rect class="cls-1" x="160" y="257.78" width="8.89" height="8.89"/><rect class="cls-1" x="160" y="275.56" width="8.89" height="17.78"/><rect class="cls-1" x="160" y="302.22" width="8.89" height="8.89"/><rect class="cls-1" x="160" y="320" width="8.89" height="8.89"/><rect class="cls-1" x="160" y="337.78" width="8.89" height="8.89"/><rect class="cls-1" x="160" y="355.56" width="8.89" height="8.89"/><rect class="cls-1" x="168.89" y="8.89" width="8.89" height="8.89"/><rect class="cls-1" x="168.89" y="35.56" width="8.89" height="8.89"/><rect class="cls-1" x="168.89" y="71.11" width="8.89" height="8.89"/><rect class="cls-1" x="168.89" y="106.67" width="8.89" height="8.89"/><rect class="cls-1" x="168.89" y="124.44" width="8.89" height="62.22"/><rect class="cls-1" x="168.89" y="195.56" width="8.89" height="8.89"/><rect class="cls-1" x="168.89" y="248.89" width="8.89" height="17.78"/><rect class="cls-1" x="168.89" y="275.56" width="8.89" height="8.89"/><rect class="cls-1" x="168.89" y="293.33" width="8.89" height="8.89"/><rect class="cls-1" x="168.89" y="328.89" width="8.89" height="26.67"/><rect class="cls-1" x="168.89" y="364.44" width="8.89" height="17.78"/><rect class="cls-1" x="177.78" y="8.89" width="8.89" height="8.89"/><rect class="cls-1" x="177.78" y="35.56" width="8.89" height="53.33"/><rect class="cls-1" x="177.78" y="124.44" width="8.89" height="8.89"/><rect class="cls-1" x="177.78" y="142.22" width="8.89" height="8.89"/><rect class="cls-1" x="177.78" y="160" width="8.89" height="8.89"/><rect class="cls-1" x="177.78" y="177.78" width="8.89" height="44.44"/><rect class="cls-1" x="177.78" y="231.11" width="8.89" height="17.78"/><rect class="cls-1" x="177.78" y="257.78" width="8.89" height="26.67"/><rect class="cls-1" x="177.78" y="293.33" width="8.89" height="71.11"/><rect class="cls-1" x="186.67" y="8.89" width="8.89" height="8.89"/><rect class="cls-1" x="186.67" y="26.67" width="8.89" height="17.78"/><rect class="cls-1" x="186.67" y="71.11" width="8.89" height="26.67"/><rect class="cls-1" x="186.67" y="106.67" width="8.89" height="8.89"/><rect class="cls-1" x="186.67" y="142.22" width="8.89" height="8.89"/><rect class="cls-1" x="186.67" y="168.89" width="8.89" height="17.78"/><rect class="cls-1" x="186.67" y="213.33" width="8.89" height="35.56"/><rect class="cls-1" x="186.67" y="257.78" width="8.89" height="17.78"/><rect class="cls-1" x="186.67" y="311.11" width="8.89" height="17.78"/><rect class="cls-1" x="186.67" y="355.56" width="8.89" height="8.89"/><rect class="cls-1" x="186.67" y="373.33" width="8.89" height="26.67"/><rect class="cls-1" x="195.56" y="26.67" width="8.89" height="17.78"/><rect class="cls-1" x="195.56" y="53.33" width="8.89" height="8.89"/><rect class="cls-1" x="195.56" y="71.11" width="8.89" height="8.89"/><rect class="cls-1" x="195.56" y="142.22" width="8.89" height="17.78"/><rect class="cls-1" x="195.56" y="177.78" width="8.89" height="8.89"/><rect class="cls-1" x="195.56" y="195.56" width="8.89" height="8.89"/><rect class="cls-1" x="195.56" y="213.33" width="8.89" height="8.89"/><rect class="cls-1" x="195.56" y="231.11" width="8.89" height="8.89"/><rect class="cls-1" x="195.56" y="257.78" width="8.89" height="8.89"/><rect class="cls-1" x="195.56" y="293.33" width="8.89" height="35.56"/><rect class="cls-1" x="195.56" y="337.78" width="8.89" height="8.89"/><rect class="cls-1" x="195.56" y="355.56" width="8.89" height="8.89"/><rect class="cls-1" x="195.56" y="373.33" width="8.89" height="26.67"/><rect class="cls-1" x="204.44" y="17.78" width="8.89" height="8.89"/><rect class="cls-1" x="204.44" y="35.56" width="8.89" height="8.89"/><rect class="cls-1" x="204.44" y="71.11" width="8.89" height="8.89"/><rect class="cls-1" x="204.44" y="88.89" width="8.89" height="8.89"/><rect class="cls-1" x="204.44" y="133.33" width="8.89" height="53.33"/><rect class="cls-1" x="204.44" y="213.33" width="8.89" height="8.89"/><rect class="cls-1" x="204.44" y="266.67" width="8.89" height="26.67"/><rect class="cls-1" x="204.44" y="311.11" width="8.89" height="17.78"/><rect class="cls-1" x="204.44" y="355.56" width="8.89" height="26.67"/><rect class="cls-1" x="204.44" y="391.11" width="8.89" height="8.89"/><rect class="cls-1" x="213.33" width="8.89" height="80"/><rect class="cls-1" x="213.33" y="88.89" width="8.89" height="8.89"/><rect class="cls-1" x="213.33" y="106.67" width="8.89" height="8.89"/><rect class="cls-1" x="213.33" y="124.44" width="8.89" height="8.89"/><rect class="cls-1" x="213.33" y="160" width="8.89" height="71.11"/><rect class="cls-1" x="213.33" y="240" width="8.89" height="26.67"/><rect class="cls-1" x="213.33" y="275.56" width="8.89" height="26.67"/><rect class="cls-1" x="213.33" y="311.11" width="8.89" height="53.33"/><rect class="cls-1" x="213.33" y="373.33" width="8.89" height="8.89"/><rect class="cls-1" x="213.33" y="391.11" width="8.89" height="8.89"/><rect class="cls-1" x="222.22" width="8.89" height="8.89"/><rect class="cls-1" x="222.22" y="26.67" width="8.89" height="17.78"/><rect class="cls-1" x="222.22" y="71.11" width="8.89" height="8.89"/><rect class="cls-1" x="222.22" y="97.78" width="8.89" height="17.78"/><rect class="cls-1" x="222.22" y="142.22" width="8.89" height="17.78"/><rect class="cls-1" x="222.22" y="168.89" width="8.89" height="8.89"/><rect class="cls-1" x="222.22" y="186.67" width="8.89" height="17.78"/><rect class="cls-1" x="222.22" y="231.11" width="8.89" height="8.89"/><rect class="cls-1" x="222.22" y="257.78" width="8.89" height="8.89"/><rect class="cls-1" x="222.22" y="284.44" width="8.89" height="17.78"/><rect class="cls-1" x="222.22" y="311.11" width="8.89" height="8.89"/><rect class="cls-1" x="222.22" y="328.89" width="8.89" height="8.89"/><rect class="cls-1" x="222.22" y="355.56" width="8.89" height="8.89"/><rect class="cls-1" x="222.22" y="373.33" width="8.89" height="26.67"/><rect class="cls-1" x="231.11" y="8.89" width="8.89" height="8.89"/><rect class="cls-1" x="231.11" y="44.45" width="8.89" height="17.78"/><rect class="cls-1" x="231.11" y="88.89" width="8.89" height="17.78"/><rect class="cls-1" x="231.11" y="133.33" width="8.89" height="8.89"/><rect class="cls-1" x="231.11" y="160" width="8.89" height="17.78"/><rect class="cls-1" x="231.11" y="195.56" width="8.89" height="8.89"/><rect class="cls-1" x="231.11" y="231.11" width="8.89" height="26.67"/><rect class="cls-1" x="231.11" y="302.22" width="8.89" height="8.89"/><rect class="cls-1" x="231.11" y="320" width="8.89" height="8.89"/><rect class="cls-1" x="231.11" y="337.78" width="8.89" height="8.89"/><rect class="cls-1" x="231.11" y="373.33" width="8.89" height="17.78"/><rect class="cls-1" x="240" width="8.89" height="35.56"/><rect class="cls-1" x="240" y="44.45" width="8.89" height="8.89"/><rect class="cls-1" x="240" y="62.22" width="8.89" height="8.89"/><rect class="cls-1" x="240" y="80" width="8.89" height="8.89"/><rect class="cls-1" x="240" y="97.78" width="8.89" height="8.89"/><rect class="cls-1" x="240" y="115.56" width="8.89" height="26.67"/><rect class="cls-1" x="240" y="151.11" width="8.89" height="8.89"/><rect class="cls-1" x="240" y="168.89" width="8.89" height="8.89"/><rect class="cls-1" x="240" y="186.67" width="8.89" height="17.78"/><rect class="cls-1" x="240" y="240" width="8.89" height="17.78"/><rect class="cls-1" x="240" y="266.67" width="8.89" height="8.89"/><rect class="cls-1" x="240" y="293.33" width="8.89" height="17.78"/><rect class="cls-1" x="240" y="337.78" width="8.89" height="17.78"/><rect class="cls-1" x="240" y="364.44" width="8.89" height="8.89"/><rect class="cls-1" x="248.89" y="8.89" width="8.89" height="8.89"/><rect class="cls-1" x="248.89" y="53.33" width="8.89" height="17.78"/><rect class="cls-1" x="248.89" y="133.33" width="8.89" height="8.89"/><rect class="cls-1" x="248.89" y="168.89" width="8.89" height="8.89"/><rect class="cls-1" x="248.89" y="186.67" width="8.89" height="8.89"/><rect class="cls-1" x="248.89" y="204.44" width="8.89" height="8.89"/><rect class="cls-1" x="248.89" y="222.22" width="8.89" height="26.67"/><rect class="cls-1" x="248.89" y="257.78" width="8.89" height="8.89"/><rect class="cls-1" x="248.89" y="293.33" width="8.89" height="26.67"/><rect class="cls-1" x="248.89" y="337.78" width="8.89" height="17.78"/><rect class="cls-1" x="248.89" y="364.44" width="8.89" height="26.67"/><rect class="cls-1" x="257.78" y="17.78" width="8.89" height="35.56"/><rect class="cls-1" x="257.78" y="62.22" width="8.89" height="8.89"/><rect class="cls-1" x="257.78" y="80" width="8.89" height="8.89"/><rect class="cls-1" x="257.78" y="115.56" width="8.89" height="8.89"/><rect class="cls-1" x="257.78" y="142.22" width="8.89" height="8.89"/><rect class="cls-1" x="257.78" y="186.67" width="8.89" height="8.89"/><rect class="cls-1" x="257.78" y="204.44" width="8.89" height="17.78"/><rect class="cls-1" x="257.78" y="248.89" width="8.89" height="17.78"/><rect class="cls-1" x="257.78" y="293.33" width="8.89" height="8.89"/><rect class="cls-1" x="257.78" y="311.11" width="8.89" height="26.67"/><rect class="cls-1" x="257.78" y="346.67" width="8.89" height="17.78"/><rect class="cls-1" x="257.78" y="382.22" width="8.89" height="17.78"/><rect class="cls-1" x="266.67" y="17.78" width="8.89" height="26.67"/><rect class="cls-1" x="266.67" y="53.33" width="8.89" height="35.56"/><rect class="cls-1" x="266.67" y="97.78" width="8.89" height="8.89"/><rect class="cls-1" x="266.67" y="115.56" width="8.89" height="8.89"/><rect class="cls-1" x="266.67" y="142.22" width="8.89" height="17.78"/><rect class="cls-1" x="266.67" y="168.89" width="8.89" height="8.89"/><rect class="cls-1" x="266.67" y="186.67" width="8.89" height="8.89"/><rect class="cls-1" x="266.67" y="222.22" width="8.89" height="44.44"/><rect class="cls-1" x="266.67" y="275.56" width="8.89" height="26.67"/><rect class="cls-1" x="266.67" y="311.11" width="8.89" height="26.67"/><rect class="cls-1" x="266.67" y="355.56" width="8.89" height="44.44"/><rect class="cls-1" x="275.56" width="8.89" height="8.89"/><rect class="cls-1" x="275.56" y="17.78" width="8.89" height="35.56"/><rect class="cls-1" x="275.56" y="62.22" width="8.89" height="35.56"/><rect class="cls-1" x="275.56" y="106.67" width="8.89" height="8.89"/><rect class="cls-1" x="275.56" y="142.22" width="8.89" height="8.89"/><rect class="cls-1" x="275.56" y="177.78" width="8.89" height="26.67"/><rect class="cls-1" x="275.56" y="213.33" width="8.89" height="44.45"/><rect class="cls-1" x="275.56" y="293.33" width="8.89" height="17.78"/><rect class="cls-1" x="275.56" y="320" width="8.89" height="8.89"/><rect class="cls-1" x="275.56" y="355.56" width="8.89" height="26.67"/><rect class="cls-1" x="284.44" width="8.89" height="8.89"/><rect class="cls-1" x="284.44" y="17.78" width="8.89" height="8.89"/><rect class="cls-1" x="284.44" y="35.56" width="8.89" height="35.56"/><rect class="cls-1" x="284.44" y="80" width="8.89" height="26.67"/><rect class="cls-1" x="284.44" y="142.22" width="8.89" height="8.89"/><rect class="cls-1" x="284.44" y="168.89" width="8.89" height="8.89"/><rect class="cls-1" x="284.44" y="195.56" width="8.89" height="17.78"/><rect class="cls-1" x="284.44" y="231.11" width="8.89" height="8.89"/><rect class="cls-1" x="284.44" y="275.56" width="8.89" height="8.89"/><rect class="cls-1" x="284.44" y="293.33" width="8.89" height="17.78"/><rect class="cls-1" x="284.44" y="346.67" width="8.89" height="8.89"/><rect class="cls-1" x="284.44" y="382.22" width="8.89" height="8.89"/><rect class="cls-1" x="293.33" width="8.89" height="26.67"/><rect class="cls-1" x="293.33" y="44.45" width="8.89" height="8.89"/><rect class="cls-1" x="293.33" y="62.22" width="8.89" height="17.78"/><rect class="cls-1" x="293.33" y="88.89" width="8.89" height="8.89"/><rect class="cls-1" x="293.33" y="106.67" width="8.89" height="8.89"/><rect class="cls-1" x="293.33" y="133.33" width="8.89" height="8.89"/><rect class="cls-1" x="293.33" y="177.78" width="8.89" height="8.89"/><rect class="cls-1" x="293.33" y="195.56" width="8.89" height="8.89"/><rect class="cls-1" x="293.33" y="248.89" width="8.89" height="8.89"/><rect class="cls-1" x="293.33" y="266.67" width="8.89" height="17.78"/><rect class="cls-1" x="293.33" y="328.89" width="8.89" height="17.78"/><rect class="cls-1" x="293.33" y="355.56" width="8.89" height="8.89"/><rect class="cls-1" x="293.33" y="373.33" width="8.89" height="17.78"/><rect class="cls-1" x="302.22" y="35.56" width="8.89" height="8.89"/><rect class="cls-1" x="302.22" y="53.33" width="8.89" height="26.67"/><rect class="cls-1" x="302.22" y="88.89" width="8.89" height="17.78"/><rect class="cls-1" x="302.22" y="124.44" width="8.89" height="17.78"/><rect class="cls-1" x="302.22" y="160" width="8.89" height="8.89"/><rect class="cls-1" x="302.22" y="195.56" width="8.89" height="8.89"/><rect class="cls-1" x="302.22" y="231.11" width="8.89" height="8.89"/><rect class="cls-1" x="302.22" y="248.89" width="8.89" height="8.89"/><rect class="cls-1" x="302.22" y="266.67" width="8.89" height="8.89"/><rect class="cls-1" x="302.22" y="284.44" width="8.89" height="8.89"/><rect class="cls-1" x="302.22" y="302.22" width="8.89" height="8.89"/><rect class="cls-1" x="302.22" y="337.78" width="8.89" height="8.89"/><rect class="cls-1" x="302.22" y="373.33" width="8.89" height="8.89"/><rect class="cls-1" x="311.11" y="8.89" width="8.89" height="35.56"/><rect class="cls-1" x="311.11" y="80" width="8.89" height="26.67"/><rect class="cls-1" x="311.11" y="115.56" width="8.89" height="17.78"/><rect class="cls-1" x="311.11" y="151.11" width="8.89" height="26.67"/><rect class="cls-1" x="311.11" y="186.67" width="8.89" height="8.89"/><rect class="cls-1" x="311.11" y="213.33" width="8.89" height="26.67"/><rect class="cls-1" x="311.11" y="275.56" width="8.89" height="8.89"/><rect class="cls-1" x="311.11" y="293.33" width="8.89" height="8.89"/><rect class="cls-1" x="311.11" y="311.11" width="8.89" height="8.89"/><rect class="cls-1" x="311.11" y="337.78" width="8.89" height="8.89"/><rect class="cls-1" x="311.11" y="373.33" width="8.89" height="17.78"/><rect class="cls-1" x="320" width="8.89" height="8.89"/><rect class="cls-1" x="320" y="26.67" width="8.89" height="17.78"/><rect class="cls-1" x="320" y="53.33" width="8.89" height="17.78"/><rect class="cls-1" x="320" y="80" width="8.89" height="17.78"/><rect class="cls-1" x="320" y="115.56" width="8.89" height="17.78"/><rect class="cls-1" x="320" y="151.11" width="8.89" height="8.89"/><rect class="cls-1" x="320" y="177.78" width="8.89" height="44.44"/><rect class="cls-1" x="320" y="231.11" width="8.89" height="8.89"/><rect class="cls-1" x="320" y="248.89" width="8.89" height="26.67"/><rect class="cls-1" x="320" y="293.33" width="8.89" height="17.78"/><rect class="cls-1" x="320" y="320" width="8.89" height="44.45"/><rect class="cls-1" x="320" y="373.33" width="8.89" height="8.89"/><rect class="cls-1" x="320" y="391.11" width="8.89" height="8.89"/><rect class="cls-1" x="328.89" y="80" width="8.89" height="17.78"/><rect class="cls-1" x="328.89" y="106.67" width="8.89" height="8.89"/><rect class="cls-1" x="328.89" y="133.33" width="8.89" height="26.67"/><rect class="cls-1" x="328.89" y="168.89" width="8.89" height="17.78"/><rect class="cls-1" x="328.89" y="213.33" width="8.89" height="8.89"/><rect class="cls-1" x="328.89" y="231.11" width="8.89" height="8.89"/><rect class="cls-1" x="328.89" y="266.67" width="8.89" height="17.78"/><rect class="cls-1" x="328.89" y="302.22" width="8.89" height="26.67"/><rect class="cls-1" x="328.89" y="355.56" width="8.89" height="26.67"/><rect class="cls-1" x="337.78" width="8.89" height="62.22"/><rect class="cls-1" x="337.78" y="71.11" width="8.89" height="8.89"/><rect class="cls-1" x="337.78" y="88.89" width="8.89" height="8.89"/><rect class="cls-1" x="337.78" y="124.44" width="8.89" height="8.89"/><rect class="cls-1" x="337.78" y="160" width="8.89" height="26.67"/><rect class="cls-1" x="337.78" y="195.56" width="8.89" height="8.89"/><rect class="cls-1" x="337.78" y="213.33" width="8.89" height="17.78"/><rect class="cls-1" x="337.78" y="240" width="8.89" height="8.89"/><rect class="cls-1" x="337.78" y="275.56" width="8.89" height="8.89"/><rect class="cls-1" x="337.78" y="320" width="8.89" height="8.89"/><rect class="cls-1" x="337.78" y="337.78" width="8.89" height="8.89"/><rect class="cls-1" x="337.78" y="355.56" width="8.89" height="8.89"/><rect class="cls-1" x="337.78" y="391.11" width="8.89" height="8.89"/><rect class="cls-1" x="346.67" width="8.89" height="8.89"/><rect class="cls-1" x="346.67" y="53.33" width="8.89" height="8.89"/><rect class="cls-1" x="346.67" y="71.11" width="8.89" height="35.56"/><rect class="cls-1" x="346.67" y="124.44" width="8.89" height="8.89"/><rect class="cls-1" x="346.67" y="160" width="8.89" height="26.67"/><rect class="cls-1" x="346.67" y="213.33" width="8.89" height="8.89"/><rect class="cls-1" x="346.67" y="231.11" width="8.89" height="8.89"/><rect class="cls-1" x="346.67" y="248.89" width="8.89" height="17.78"/><rect class="cls-1" x="346.67" y="284.44" width="8.89" height="8.89"/><rect class="cls-1" x="346.67" y="302.22" width="8.89" height="26.67"/><rect class="cls-1" x="346.67" y="355.56" width="8.89" height="8.89"/><rect class="cls-1" x="346.67" y="391.11" width="8.89" height="8.89"/><rect class="cls-1" x="355.55" width="8.89" height="8.89"/><rect class="cls-1" x="355.55" y="17.78" width="8.89" height="26.67"/><rect class="cls-1" x="355.55" y="53.33" width="8.89" height="8.89"/><rect class="cls-1" x="355.55" y="71.11" width="8.89" height="8.89"/><rect class="cls-1" x="355.55" y="97.78" width="8.89" height="8.89"/><rect class="cls-1" x="355.55" y="133.33" width="8.89" height="8.89"/><rect class="cls-1" x="355.55" y="168.89" width="8.89" height="53.33"/><rect class="cls-1" x="355.55" y="248.89" width="8.89" height="8.89"/><rect class="cls-1" x="355.55" y="284.44" width="8.89" height="8.89"/><rect class="cls-1" x="355.55" y="302.22" width="8.89" height="8.89"/><rect class="cls-1" x="355.55" y="320" width="8.89" height="53.33"/><rect class="cls-1" x="355.55" y="391.11" width="8.89" height="8.89"/><rect class="cls-1" x="364.44" width="8.89" height="8.89"/><rect class="cls-1" x="364.44" y="17.78" width="8.89" height="26.67"/><rect class="cls-1" x="364.44" y="53.33" width="8.89" height="8.89"/><rect class="cls-1" x="364.44" y="71.11" width="8.89" height="17.78"/><rect class="cls-1" x="364.44" y="97.78" width="8.89" height="8.89"/><rect class="cls-1" x="364.44" y="115.56" width="8.89" height="8.89"/><rect class="cls-1" x="364.44" y="133.33" width="8.89" height="17.78"/><rect class="cls-1" x="364.44" y="168.89" width="8.89" height="8.89"/><rect class="cls-1" x="364.44" y="195.56" width="8.89" height="44.44"/><rect class="cls-1" x="364.44" y="275.56" width="8.89" height="8.89"/><rect class="cls-1" x="364.44" y="293.33" width="8.89" height="8.89"/><rect class="cls-1" x="364.44" y="311.11" width="8.89" height="26.67"/><rect class="cls-1" x="364.44" y="346.67" width="8.89" height="8.89"/><rect class="cls-1" x="364.44" y="382.22" width="8.89" height="8.89"/><rect class="cls-1" x="373.33" width="8.89" height="8.89"/><rect class="cls-1" x="373.33" y="17.78" width="8.89" height="26.67"/><rect class="cls-1" x="373.33" y="53.33" width="8.89" height="8.89"/><rect class="cls-1" x="373.33" y="71.11" width="8.89" height="8.89"/><rect class="cls-1" x="373.33" y="97.78" width="8.89" height="8.89"/><rect class="cls-1" x="373.33" y="133.33" width="8.89" height="8.89"/><rect class="cls-1" x="373.33" y="151.11" width="8.89" height="44.44"/><rect class="cls-1" x="373.33" y="204.44" width="8.89" height="8.89"/><rect class="cls-1" x="373.33" y="240" width="8.89" height="8.89"/><rect class="cls-1" x="373.33" y="257.78" width="8.89" height="8.89"/><rect class="cls-1" x="373.33" y="275.56" width="8.89" height="8.89"/><rect class="cls-1" x="373.33" y="293.33" width="8.89" height="8.89"/><rect class="cls-1" x="373.33" y="311.11" width="8.89" height="8.89"/><rect class="cls-1" x="373.33" y="328.89" width="8.89" height="26.67"/><rect class="cls-1" x="373.33" y="364.44" width="8.89" height="26.67"/><rect class="cls-1" x="382.22" width="8.89" height="8.89"/><rect class="cls-1" x="382.22" y="53.33" width="8.89" height="8.89"/><rect class="cls-1" x="382.22" y="80" width="8.89" height="35.56"/><rect class="cls-1" x="382.22" y="133.33" width="8.89" height="17.78"/><rect class="cls-1" x="382.22" y="160" width="8.89" height="26.67"/><rect class="cls-1" x="382.22" y="195.56" width="8.89" height="26.67"/><rect class="cls-1" x="382.22" y="231.11" width="8.89" height="8.89"/><rect class="cls-1" x="382.22" y="266.67" width="8.89" height="8.89"/><rect class="cls-1" x="382.22" y="284.44" width="8.89" height="8.89"/><rect class="cls-1" x="382.22" y="302.22" width="8.89" height="8.89"/><rect class="cls-1" x="382.22" y="328.89" width="8.89" height="17.78"/><rect class="cls-1" x="382.22" y="364.44" width="8.89" height="17.78"/><rect class="cls-1" x="382.22" y="391.11" width="8.89" height="8.89"/><rect class="cls-1" x="391.11" width="8.89" height="62.22"/><rect class="cls-1" x="391.11" y="80" width="8.89" height="8.89"/><rect class="cls-1" x="391.11" y="115.56" width="8.89" height="8.89"/><rect class="cls-1" x="391.11" y="133.33" width="8.89" height="26.67"/><rect class="cls-1" x="391.11" y="186.67" width="8.89" height="8.89"/><rect class="cls-1" x="391.11" y="248.89" width="8.89" height="17.78"/><rect class="cls-1" x="391.11" y="293.33" width="8.89" height="8.89"/><rect class="cls-1" x="391.11" y="320" width="8.89" height="17.78"/><rect class="cls-1" x="391.11" y="346.67" width="8.89" height="8.89"/><rect class="cls-1" x="391.11" y="364.44" width="8.89" height="8.89"/></g></svg>